<?xml version="1.0" encoding="UTF-8"?>
<svg id="Layer_2" data-name="Layer 2" xmlns="http://www.w3.org/2000/svg" viewBox="0 0 176.14 100">
  <defs>
    <style>
      .cls-1, .cls-2 {
        fill: #231f20;
        stroke-width: 0px;
      }

      .cls-2 {
        fill-rule: evenodd;
      }
    </style>
  </defs>
  <g id="Layer_1-2" data-name="Layer 1">
    <path class="cls-2" d="m35.16,1.63L.16,96.63c-.83,2.24,1.66,4.25,3.68,2.98l33.67-21.23,33.67,21.23c2.02,1.27,4.5-.74,3.68-2.98L39.85,1.63C39.42.51,38.67,0,37.51,0c-1.16,0-1.99.65-2.35,1.63Zm-.15,14.88v57.54l-27.61,17.41L35.01,16.51Z"/>
    <path class="cls-1" d="m83.2,19.95h3.94l5.21,19.81h-3.05l-1.38-5.7h-5.74l-1.42,5.7h-2.74l5.17-19.81Zm1.85,2.55l-2.22,8.95h4.47l-2.24-8.95Z"/>
    <path class="cls-1" d="m98.59,29.67l-5.47-9.66h3.38l3.81,6.99,3.89-6.99h3.1l-5.26,9.49,5.57,10.18h-3.35l-3.99-7.53-3.97,7.53h-3.21l5.5-10.02Z"/>
    <path class="cls-1" d="m122.65,29.85c0,3-.66,5.44-1.99,7.33-1.32,1.88-3,2.83-5.03,2.83s-3.7-.95-5.03-2.83-1.99-4.33-1.99-7.32.67-5.44,1.99-7.33c1.33-1.88,3-2.83,5.03-2.83s3.71.94,5.03,2.83c1.32,1.88,1.99,4.33,1.99,7.33Zm-7.02,7.53c1.2,0,2.16-.68,2.89-2.05.73-1.37,1.1-3.22,1.1-5.55s-.36-4.19-1.08-5.54c-.72-1.35-1.69-2.03-2.91-2.03s-2.17.67-2.89,2.02-1.08,3.19-1.08,5.54.36,4.19,1.09,5.55c.72,1.36,1.69,2.04,2.88,2.04Z"/>
    <path class="cls-1" d="m125.55,20.01h4.55l2.39,8.67,2.41-8.67h4.55v19.68h-2.8v-16.88l-3.07,10.46h-2.29l-3.08-10.53v16.94h-2.65v-19.68Z"/>
    <path class="cls-1" d="m77.73,60.69h3l4.47,16.97,4.42-16.97h2.83l-5.31,19.68h-4l-5.41-19.68Z"/>
    <path class="cls-1" d="m94.74,60.85h11.68v2.44h-8.88v5.45h7.81v2.57h-7.81v6.28h9.18v2.6h-11.98v-19.35Z"/>
    <path class="cls-1" d="m109.76,60.77h5.27c2.3,0,4.01.46,5.14,1.39,1.13.93,1.7,2.33,1.7,4.21,0,1.43-.34,2.58-1.03,3.47s-1.69,1.47-3.01,1.77l5.06,8.67h-3.38l-4.56-8.21h-2.39v8.21h-2.8v-19.51Zm2.8,2.5v6.25h2.16c1.37,0,2.4-.25,3.09-.75s1.03-1.25,1.03-2.27c0-1.13-.33-1.95-.99-2.46s-1.72-.77-3.2-.77h-2.09Z"/>
    <path class="cls-1" d="m124.5,77.59h3.54v-14.24h-2.93v-2.5h8.72v2.5h-2.95v14.24h3.56v2.6h-9.94v-2.6Z"/>
    <path class="cls-1" d="m141.42,63.34h-5.19v-2.57h13.2v2.57h-5.21v16.94h-2.8v-16.94Z"/>
    <path class="cls-1" d="m153.31,60.62h3.94l5.21,19.81h-3.05l-1.38-5.7h-5.74l-1.42,5.7h-2.74l5.17-19.81Zm1.85,2.55l-2.22,8.95h4.47l-2.24-8.95Z"/>
    <path class="cls-1" d="m172.94,65.5c-.04-.79-.33-1.41-.85-1.86-.52-.45-1.22-.68-2.1-.68s-1.58.24-2.15.73c-.57.48-.85,1.09-.85,1.81,0,.62.24,1.17.73,1.66.48.49,1.38,1.05,2.69,1.69l1.12.53c1.69.83,2.88,1.7,3.58,2.59.69.9,1.04,1.98,1.04,3.25,0,1.65-.59,2.96-1.76,3.93-1.18.97-2.76,1.46-4.75,1.46-1.83,0-3.25-.48-4.24-1.45s-1.52-2.37-1.59-4.22h3.03v.1c0,.97.25,1.72.75,2.25s1.2.8,2.08.8c1.01,0,1.84-.27,2.48-.82.64-.55.96-1.24.96-2.08,0-.71-.22-1.32-.66-1.8-.44-.49-1.53-1.15-3.26-1.99l-1.38-.68c-1.27-.6-2.23-1.33-2.86-2.19-.63-.86-.95-1.85-.95-2.97,0-1.53.57-2.76,1.71-3.71,1.14-.95,2.64-1.42,4.5-1.42,1.67,0,3.01.45,4.03,1.34,1.02.9,1.58,2.13,1.71,3.72h-3Z"/>
  </g>
</svg>